<svg width="24" height="24" viewBox="0 0 24 24" fill="none" xmlns="http://www.w3.org/2000/svg">
<path fill-rule="evenodd" clip-rule="evenodd" d="M1 7.45455C1 3.90226 3.90226 1 7.45455 1H16.5455C20.0977 1 23 3.90226 23 7.45455V16.5455C23 20.0977 20.0977 23 16.5455 23H7.45455C3.90226 23 1 20.0977 1 16.5455V7.45455ZM7.45455 3C5.00683 3 3 5.00683 3 7.45455V16.5455C3 18.9932 5.00683 21 7.45455 21H16.5455C18.9932 21 21 18.9932 21 16.5455V7.45455C21 5.00683 18.9932 3 16.5455 3H7.45455ZM12 15C13.6569 15 15 13.6569 15 12C15 10.3431 13.6569 9 12 9C10.3431 9 9 10.3431 9 12C9 13.6569 10.3431 15 12 15ZM12 17C14.7614 17 17 14.7614 17 12C17 9.23858 14.7614 7 12 7C9.23858 7 7 9.23858 7 12C7 14.7614 9.23858 17 12 17ZM17 7C17.5523 7 18 6.55228 18 6C18 5.44771 17.5523 5 17 5C16.4477 5 16 5.44771 16 6C16 6.55228 16.4477 7 17 7Z" fill="white" fill-opacity="0.63"/>
</svg>
